<?xml version="1.0" encoding="UTF-8"?>
<svg id="a" data-name="Layer 1" xmlns="http://www.w3.org/2000/svg" width="4069.194" height="1080" viewBox="0 0 4069.194 1080">
  <path d="M568.721,606.067c-40.866,15.972-87.452,23.937-139.791,23.937-68.927,0-123.51-18.832-163.716-56.497-40.217-37.643-60.325-89.674-60.325-156.071v-38.281c0-71.479,14.993-126.7,45.002-165.641,29.975-38.941,71.809-58.411,125.424-58.411,51.052,0,88.717,12.782,112.983,38.303,24.234,25.542,36.378,64.483,36.378,116.8v38.303h204.901v-38.303c0-100.828-30.009-177.763-90.004-230.74C579.557,26.511,493.381,0,381.058,0,127.008,0,0,134.687,0,404.037c0,131.497,36.675,231.708,110.101,300.636,73.393,68.949,176.476,103.424,309.26,103.424,72.766,0,140.418-10.252,202.987-30.646,62.525-20.417,114.237-46.597,155.103-78.519l-70.852-162.759c-51.074,30.646-97.033,53.945-137.876,69.895Z" fill="#846bf8"/>
  <path d="M1200.65,0c-135.336,0-233.952,33.837-295.862,101.488-61.931,67.673-92.875,168.501-92.875,302.549,0,269.373,129.56,404.059,388.736,404.059,268.086,0,402.134-134.686,402.134-404.059,0-136.578-32.89-238.066-98.628-304.464C1438.397,33.199,1337.24,0,1200.65,0ZM1388.314,423.2c0,74.053-13.113,130.858-39.26,170.415-26.181,39.579-75.637,59.357-148.404,59.357-63.856,0-109.815-19.14-137.877-57.443-28.095-38.303-42.131-95.746-42.131-172.329v-40.217c0-151.913,59.995-227.88,180.007-227.88,66.364,0,114.237,18.524,143.619,55.529,29.348,37.049,44.045,94.492,44.045,172.351v40.217Z" fill="#846bf8"/>
  <path d="M4021.321,652.972c-15.323,0-27.467-4.444-36.389-13.398-8.943-8.91-13.409-21.692-13.409-38.303V248.935c0-85.516-28.722-148.415-86.165-188.632-57.454-40.195-135.336-60.303-233.622-60.303-93.205,0-172.34,18.525-237.451,55.529-65.11,37.049-97.66,93.832-97.66,170.415v24.905h199.147v-15.312c0-31.901,11.793-54.253,35.432-67.035,23.606-12.738,57.113-19.141,100.531-19.141s74.977,8.932,94.789,26.797c19.779,17.908,29.679,46.619,29.679,86.176v57.658c-88.412,1.11-165.669,6.789-231.697,17.033-74.053,11.484-136.293,36.389-186.706,74.669-50.447,38.303-75.638,95.13-75.638,170.437,0,72.755,22.65,128.636,67.981,167.555,45.299,38.963,104.986,58.411,179.039,58.411,104.667,0,190.205-34.475,256.602-103.424h9.57c12.749,33.221,32.549,58.741,59.368,76.605,26.808,17.865,58.07,26.818,93.832,26.818,25.52,0,45.948-1.628,61.271-4.796,15.323-3.212,35.101-10.538,59.368-22.022v-128.307h-47.873ZM3722.589,608.927c-35.751,30.646-79.168,45.959-130.209,45.959-70.225,0-105.327-27.434-105.327-82.325,0-38.303,16.577-66.705,49.787-85.23,33.188-18.48,71.479-29.678,114.897-33.506,35.178-3.104,76.673-4.949,124.467-5.536v40.011c0,49.787-17.887,90.004-53.615,120.628Z" fill="#846bf8"/>
  <path d="M2125.547,0c-51.074,0-97.032,10.516-137.865,31.593-40.877,21.054-74.053,52.031-99.585,92.864h-9.57l-13.409-99.574h-170.426v765.966h202.987v-417.436c0-62.547,14.663-112.664,44.045-150.329,29.348-37.643,67.651-56.497,114.886-56.497,43.384,0,76.275,11.814,98.627,35.42,22.319,23.651,33.507,58.411,33.507,104.37v484.471h199.148V271.903c0-91.918-22.672-160.185-67.981-204.89-45.321-44.661-110.101-67.013-194.363-67.013Z" fill="#846bf8"/>
  <path d="M3204.6,688.415c-40.206-38.941-92.236-58.411-156.06-58.411h-289.151c-19.152,0-35.124-3.828-47.873-11.484-12.782-7.679-19.151-19.779-19.151-36.389s7.007-29.349,21.065-38.303c14.036-8.91,30.635-13.398,49.787-13.398h114.897c90.631,0,161.153-20.108,211.6-60.325,50.414-40.217,86.461-97.33,108.187-171.383,34.475-118.736,65.11-209.994,91.918-273.839h-191.492l-18.295,63.207h-9.434c-17.968-23.837-44.139-43.95-78.543-60.325-38.963-18.502-87.133-27.765-144.576-27.765-95.746,0-176.509,21.715-242.246,65.099-65.759,43.407-98.617,109.804-98.617,199.148,0,45.959,10.538,86.836,31.604,122.564,21.055,35.751,50.744,64.483,89.036,86.175-43.407,12.76-78.508,32.253-105.316,58.389-26.808,26.18-40.217,58.411-40.217,96.714,0,108.528,75.307,162.759,225.966,162.759h270c28.062,0,49.787,6.71,65.11,20.108,15.312,13.398,22.979,30.317,22.979,50.755s-7.997,37.005-23.937,49.787c-15.983,12.738-39.92,19.14-71.81,19.14h-141.705v149.361h149.361c82.974,0,151.572-21.715,205.858-65.1,54.242-43.406,81.379-101.488,81.379-174.265,0-62.525-20.108-113.28-60.325-152.221ZM2750.765,165.641c24.904-23.606,60.325-35.442,106.284-35.442s81.688,12.166,107.23,36.389c25.532,24.266,38.303,56.827,38.303,97.66,0,90.664-48.533,135.962-145.533,135.962-47.246,0-82.996-10.538-107.241-31.592-24.255-21.077-36.377-55.837-36.377-104.37,0-42.131,12.441-74.977,37.334-98.606Z" fill="#846bf8"/>
</svg>