<?xml version="1.0" encoding="UTF-8"?>
<svg id="a" data-name="Layer 1" xmlns="http://www.w3.org/2000/svg" width="1039.041" height="1080" viewBox="0 0 1039.041 1080">
  <path d="M760.081,809.993c-54.616,21.347-116.877,31.991-186.827,31.991-92.119,0-165.068-25.169-218.802-75.507-53.749-50.308-80.623-119.846-80.623-208.584v-51.161c0-95.53,20.038-169.332,60.144-221.375,40.061-52.043,95.971-78.065,167.626-78.065,68.23,0,118.567,17.083,150.999,51.191,32.387,34.137,48.618,86.18,48.618,156.1v51.191h273.844v-51.191c0-134.754-40.106-237.576-120.287-308.378C774.562,35.431,659.391,0,509.274,0,169.743,0,0,180.005,0,539.985c0,175.742,49.015,309.672,147.147,401.792,98.088,92.149,235.856,138.223,413.317,138.223,97.25,0,187.664-13.702,271.286-40.958,83.563-27.286,152.675-62.276,207.291-104.939l-94.692-217.523c-68.259,40.958-129.682,72.096-184.268,93.413Z" fill="#846bf8"/>
</svg>